<svg width="476" height="410" viewBox="0 0 476 410" fill="none" xmlns="http://www.w3.org/2000/svg">
<path fill-rule="evenodd" clip-rule="evenodd" d="M246.33 157.861C260.948 157.861 272.846 169.844 272.846 184.631C272.846 199.419 260.948 211.401 246.33 211.401C231.713 211.401 219.815 199.419 219.815 184.631C219.815 169.844 231.67 157.861 246.33 157.861Z" fill="black"/>
<path fill-rule="evenodd" clip-rule="evenodd" d="M129.56 215.948C141.671 215.948 151.487 225.849 151.487 238.087C151.487 250.282 141.671 260.183 129.56 260.183C117.45 260.183 107.634 250.282 107.634 238.087C107.634 225.849 117.45 215.948 129.56 215.948Z" fill="black"/>
<path fill-rule="evenodd" clip-rule="evenodd" d="M81.4587 371.854C62.4219 338.837 47.9319 256.571 44.575 234.942C40.2407 207.195 30.8498 190.75 45.5523 185.863C61.3171 180.637 72.9601 224.277 104.065 258.738C137.549 295.877 182.124 271.401 190.92 294.73C195.424 306.713 164.787 317.548 151.997 334.418C131.175 361.826 133.045 379.375 134.107 405.083" fill="black"/>
<path fill-rule="evenodd" clip-rule="evenodd" d="M247.053 409.418C243.951 395.48 245.99 380.055 244.843 365.905C242.973 343.384 236.217 319.843 222.534 301.656C216.416 293.497 209.192 285.636 200.523 280.197C191.727 274.631 181.826 270.934 173.625 264.39C166.996 259.078 158.413 249.135 159.858 239.744C161.515 228.696 175.707 229.843 183.654 230.566C208.682 232.775 233.88 236.09 258.441 228.569C281.217 221.6 297.322 204.263 311.557 185.991C313.979 182.889 322.605 171.161 328.214 174.22C337.307 179.192 336.203 196.741 336.542 205.24C337.902 239.702 333.908 273.441 322.732 306.16C314.191 331.188 302.676 358.214 284.276 377.591" fill="black"/>
<path d="M98.2432 90.2546C96.671 90.1696 95.5236 90.0847 94.4188 90.0847C87.0251 90.0422 79.6738 89.9997 72.2801 90.0422C70.028 90.0422 68.9657 89.5323 68.9657 87.3651C68.9657 85.3255 69.7305 84.3482 72.1101 84.5606C74.9146 84.8156 77.9741 84.5181 80.7786 84.4331C85.4104 84.3482 89.8721 84.6881 94.5463 84.4331C95.4811 84.3907 96.501 84.4331 97.3933 84.3481C102.45 84.4331 104.022 82.2235 106.104 78.8241C104.617 78.6966 103.427 78.4842 102.237 78.4842C92.3792 78.4417 82.4784 78.4417 72.62 78.3992C69.3906 78.3992 67.9883 76.6994 69.1781 74.0224C69.4331 73.47 70.7928 73.0026 71.6427 72.9601C78.2716 72.8751 84.8579 72.9176 91.4868 72.9176C97.2233 72.9176 103.002 72.7476 108.739 72.8751C111.883 72.9601 114.518 72.3652 116.898 70.453C118.215 69.3907 119.829 68.6258 121.317 67.7335C121.274 67.436 121.274 67.1386 121.232 66.8411C117.195 66.8411 113.201 66.8411 109.164 66.8411C96.8834 66.8411 84.603 66.8411 72.3651 66.8411C70.6654 66.8411 69.0082 66.9686 69.1781 64.7165C69.3056 62.8893 69.0506 61.3171 72.2376 61.3171C101.09 61.4021 129.943 61.4021 158.795 61.3171C161.6 61.3171 161.515 62.7618 161.6 64.4191C161.685 66.2463 160.877 66.8411 158.753 66.9261C151.784 67.1811 144.603 66.8836 137.889 68.2009C115.113 72.7901 99.9854 89.8722 99.8579 110.481C99.7729 125.906 99.8154 141.288 99.8579 156.713C99.8579 158.838 99.178 159.73 96.5859 159.645C94.1638 159.603 93.5265 158.838 93.5265 156.798C93.6115 141.246 93.569 125.651 93.569 110.099C93.569 104.065 94.8438 98.2433 97.3084 92.5917C97.5633 92.0393 97.7758 91.4444 98.2432 90.2546Z" fill="black"/>
<path d="M152.931 84.5606C154.504 84.4756 156.288 84.6456 158.2 84.6031C161.472 84.4756 161.77 84.9431 161.685 87.7901C161.642 89.5323 160.793 90.1272 158.88 90.0847C155.906 89.9997 152.931 90.0422 149.957 90.0847C137.507 90.2122 126.756 99.0082 126.543 109.929C126.331 120.127 135.127 129.518 147.365 130.708C150.977 131.048 154.631 130.835 158.285 131.048C159.433 131.133 161.43 131.558 161.557 132.068C161.855 133.427 161.94 135.552 161.005 136.232C160.113 136.869 157.861 136.189 156.203 135.892C155.651 135.807 155.184 135.212 154.504 134.702C170.948 137.464 149.065 136.784 146.09 136.359C139.376 135.424 133.47 133.002 128.626 128.753C128.158 128.371 127.648 127.988 127.096 127.606C124.971 131.558 126.119 135.424 129.943 137.592C134.617 140.226 139.674 141.841 144.56 142.308C146.175 142.861 150.297 142.478 152.082 142.776C152.974 142.563 147.322 145.283 147.79 144.773C151.359 140.948 162.45 143.753 160.538 142.648C160.24 142.478 161.6 145.113 161.642 146.473C161.642 147.025 160.368 148.087 159.645 148.13C148.682 148.427 137.762 148.512 127.818 143.413C127.606 143.286 127.266 143.328 127.011 143.286C125.141 147.025 125.991 148.98 130.07 150.552C136.869 153.186 143.965 154.249 151.359 154.036C154.674 153.951 158.031 154.036 161.77 154.036C161.77 155.481 161.685 156.628 161.77 157.776C161.897 159.305 161.133 159.815 159.433 159.858C148.767 159.985 138.144 160.028 128.031 156.288C127.691 156.161 127.308 156.161 126.756 156.076C126.586 156.501 126.288 156.883 126.331 157.223C126.628 160.028 124.504 159.773 122.422 159.815C119.872 159.858 120.042 158.413 120.042 156.926C120 141.883 119.872 126.798 119.915 111.756C119.957 96.926 132.705 85.283 149.532 84.6881C150.594 84.5181 151.487 84.3906 152.931 84.5606Z" fill="black"/>
<path d="M106.742 131.897C106.742 124.759 106.699 117.577 106.742 110.439C106.912 91.3594 121.317 76.402 142.776 73.385C148.3 72.6201 154.036 73.13 159.688 73.045C161.77 73.0025 161.685 74.2773 161.6 75.4671C161.515 76.6994 162.11 78.3991 159.645 78.4416C156.373 78.4841 153.144 78.4841 149.872 78.4841C133.172 78.5266 119.872 86.8552 114.73 100.708C113.838 103.13 113.456 105.807 113.413 108.356C113.158 124.589 113.031 140.821 113.031 157.053C113.031 159.263 112.011 159.688 109.801 159.688C107.337 159.73 106.699 158.88 106.742 156.841C106.827 148.597 106.784 140.226 106.742 131.897C106.784 131.897 106.784 131.897 106.742 131.897Z" fill="black"/>
<path d="M176.514 67.3245V74.6455H175.558V67.3245H176.514ZM178.867 67.3245V68.119H173.21V67.3245H178.867ZM182.658 73.3885V69.2051H183.593V74.6455H182.703L182.658 73.3885ZM182.834 72.2421L183.221 72.232C183.221 72.594 183.183 72.9292 183.106 73.2376C183.032 73.5427 182.911 73.8075 182.744 74.0321C182.576 74.2567 182.356 74.4326 182.085 74.56C181.813 74.6841 181.483 74.7461 181.094 74.7461C180.829 74.7461 180.586 74.7075 180.365 74.6304C180.147 74.5533 179.96 74.4343 179.802 74.2734C179.644 74.1125 179.522 73.903 179.435 73.6449C179.351 73.3868 179.309 73.0767 179.309 72.7147V69.2051H180.239V72.7248C180.239 72.9695 180.266 73.1723 180.32 73.3332C180.377 73.4907 180.452 73.6164 180.546 73.7103C180.643 73.8008 180.751 73.8645 180.868 73.9013C180.989 73.9382 181.113 73.9567 181.24 73.9567C181.636 73.9567 181.949 73.8812 182.18 73.7304C182.412 73.5762 182.578 73.37 182.678 73.1119C182.782 72.8505 182.834 72.5605 182.834 72.2421ZM186.022 66.9223V74.6455H185.087V66.9223H186.022ZM187.269 71.9856V71.87C187.269 71.4778 187.326 71.1141 187.44 70.7789C187.554 70.4403 187.718 70.147 187.933 69.8989C188.147 69.6475 188.407 69.4531 188.712 69.3157C189.017 69.1749 189.359 69.1045 189.738 69.1045C190.12 69.1045 190.463 69.1749 190.768 69.3157C191.077 69.4531 191.338 69.6475 191.553 69.8989C191.771 70.147 191.937 70.4403 192.051 70.7789C192.165 71.1141 192.222 71.4778 192.222 71.87V71.9856C192.222 72.3778 192.165 72.7415 192.051 73.0767C191.937 73.4119 191.771 73.7052 191.553 73.9567C191.338 74.2047 191.078 74.3991 190.773 74.5399C190.472 74.6774 190.13 74.7461 189.748 74.7461C189.366 74.7461 189.022 74.6774 188.717 74.5399C188.412 74.3991 188.15 74.2047 187.933 73.9567C187.718 73.7052 187.554 73.4119 187.44 73.0767C187.326 72.7415 187.269 72.3778 187.269 71.9856ZM188.199 71.87V71.9856C188.199 72.2571 188.231 72.5136 188.295 72.7549C188.358 72.9929 188.454 73.2041 188.581 73.3885C188.712 73.5728 188.874 73.7187 189.069 73.8259C189.263 73.9298 189.49 73.9818 189.748 73.9818C190.002 73.9818 190.225 73.9298 190.416 73.8259C190.611 73.7187 190.772 73.5728 190.899 73.3885C191.027 73.2041 191.122 72.9929 191.186 72.7549C191.253 72.5136 191.286 72.2571 191.286 71.9856V71.87C191.286 71.6018 191.253 71.3487 191.186 71.1107C191.122 70.8694 191.025 70.6565 190.894 70.4721C190.767 70.2844 190.606 70.1369 190.411 70.0297C190.22 69.9224 189.996 69.8688 189.738 69.8688C189.483 69.8688 189.258 69.9224 189.064 70.0297C188.873 70.1369 188.712 70.2844 188.581 70.4721C188.454 70.6565 188.358 70.8694 188.295 71.1107C188.231 71.3487 188.199 71.6018 188.199 71.87ZM196.596 73.7153V70.9146C196.596 70.7001 196.552 70.5141 196.465 70.3565C196.382 70.1956 196.254 70.0716 196.083 69.9844C195.912 69.8973 195.701 69.8537 195.45 69.8537C195.215 69.8537 195.009 69.8939 194.831 69.9744C194.657 70.0548 194.519 70.1604 194.419 70.2911C194.322 70.4219 194.273 70.5627 194.273 70.7135H193.343C193.343 70.5191 193.393 70.3263 193.494 70.1353C193.594 69.9442 193.738 69.7716 193.926 69.6174C194.117 69.4598 194.345 69.3358 194.61 69.2453C194.878 69.1514 195.176 69.1045 195.505 69.1045C195.9 69.1045 196.249 69.1715 196.551 69.3056C196.856 69.4397 197.094 69.6425 197.265 69.914C197.439 70.1822 197.526 70.5191 197.526 70.9247V73.4589C197.526 73.6399 197.541 73.8326 197.571 74.0371C197.605 74.2416 197.654 74.4176 197.717 74.5651V74.6455H196.747C196.7 74.5382 196.663 74.3958 196.636 74.2181C196.609 74.0371 196.596 73.8695 196.596 73.7153ZM196.757 71.347L196.767 72.0007H195.827C195.562 72.0007 195.326 72.0225 195.118 72.0661C194.91 72.1063 194.736 72.1683 194.595 72.2521C194.454 72.3359 194.347 72.4415 194.273 72.5689C194.199 72.6929 194.162 72.8387 194.162 73.0063C194.162 73.1773 194.201 73.3332 194.278 73.474C194.355 73.6147 194.471 73.727 194.625 73.8108C194.783 73.8913 194.975 73.9315 195.203 73.9315C195.488 73.9315 195.74 73.8712 195.957 73.7505C196.175 73.6298 196.348 73.4823 196.475 73.308C196.606 73.1337 196.676 72.9644 196.687 72.8002L197.084 73.2477C197.06 73.3885 196.997 73.5443 196.893 73.7153C196.789 73.8863 196.65 74.0505 196.475 74.2081C196.304 74.3623 196.1 74.4913 195.862 74.5952C195.627 74.6958 195.362 74.7461 195.067 74.7461C194.699 74.7461 194.375 74.674 194.097 74.5299C193.822 74.3857 193.608 74.193 193.453 73.9516C193.303 73.7069 193.227 73.4337 193.227 73.132C193.227 72.8404 193.284 72.584 193.398 72.3627C193.512 72.1381 193.676 71.9521 193.891 71.8046C194.105 71.6538 194.364 71.5398 194.665 71.4627C194.967 71.3856 195.304 71.347 195.676 71.347H196.757ZM199.92 70.3666V74.6455H198.989V69.2051H199.869L199.92 70.3666ZM199.698 71.7191L199.311 71.704C199.315 71.332 199.37 70.9884 199.477 70.6733C199.584 70.3548 199.735 70.0783 199.93 69.8436C200.124 69.609 200.355 69.428 200.624 69.3006C200.895 69.1699 201.195 69.1045 201.524 69.1045C201.792 69.1045 202.033 69.1414 202.248 69.2151C202.462 69.2855 202.645 69.3995 202.796 69.557C202.95 69.7146 203.067 69.9191 203.148 70.1705C203.228 70.4185 203.268 70.7219 203.268 71.0806V74.6455H202.333V71.0705C202.333 70.7856 202.291 70.5576 202.207 70.3867C202.124 70.2124 202.001 70.0867 201.84 70.0096C201.679 69.9291 201.482 69.8889 201.247 69.8889C201.016 69.8889 200.805 69.9375 200.614 70.0347C200.426 70.1319 200.263 70.266 200.126 70.437C199.992 70.6079 199.886 70.804 199.809 71.0252C199.735 71.2431 199.698 71.4744 199.698 71.7191ZM209.242 72.3175H210.207C210.157 72.7801 210.025 73.1941 209.81 73.5594C209.595 73.9248 209.292 74.2148 208.9 74.4293C208.508 74.6405 208.018 74.7461 207.432 74.7461C207.003 74.7461 206.612 74.6656 206.26 74.5047C205.912 74.3438 205.611 74.1159 205.36 73.8209C205.109 73.5226 204.914 73.1656 204.777 72.7499C204.643 72.3309 204.576 71.8649 204.576 71.3521V70.623C204.576 70.1101 204.643 69.6459 204.777 69.2302C204.914 68.8112 205.11 68.4525 205.365 68.1542C205.623 67.8558 205.933 67.6262 206.295 67.4653C206.657 67.3044 207.065 67.224 207.517 67.224C208.07 67.224 208.538 67.3279 208.92 67.5357C209.302 67.7435 209.599 68.0318 209.81 68.4006C210.025 68.7659 210.157 69.19 210.207 69.6727H209.242C209.195 69.3308 209.108 69.0375 208.98 68.7928C208.853 68.5447 208.672 68.3536 208.437 68.2195C208.203 68.0855 207.896 68.0184 207.517 68.0184C207.192 68.0184 206.905 68.0804 206.657 68.2045C206.413 68.3285 206.206 68.5045 206.039 68.7324C205.875 68.9604 205.751 69.2336 205.667 69.552C205.583 69.8704 205.541 70.2241 205.541 70.6129V71.3521C205.541 71.7107 205.578 72.0476 205.652 72.3627C205.729 72.6778 205.844 72.9544 205.999 73.1924C206.153 73.4304 206.349 73.6181 206.587 73.7555C206.825 73.8896 207.107 73.9567 207.432 73.9567C207.844 73.9567 208.172 73.8913 208.417 73.7606C208.662 73.6298 208.846 73.4421 208.97 73.1974C209.098 72.9527 209.188 72.6594 209.242 72.3175ZM211.142 71.9856V71.87C211.142 71.4778 211.199 71.1141 211.313 70.7789C211.427 70.4403 211.592 70.147 211.806 69.8989C212.021 69.6475 212.28 69.4531 212.586 69.3157C212.891 69.1749 213.232 69.1045 213.611 69.1045C213.993 69.1045 214.337 69.1749 214.642 69.3157C214.95 69.4531 215.212 69.6475 215.426 69.8989C215.644 70.147 215.81 70.4403 215.924 70.7789C216.038 71.1141 216.095 71.4778 216.095 71.87V71.9856C216.095 72.3778 216.038 72.7415 215.924 73.0767C215.81 73.4119 215.644 73.7052 215.426 73.9567C215.212 74.2047 214.952 74.3991 214.647 74.5399C214.345 74.6774 214.003 74.7461 213.621 74.7461C213.239 74.7461 212.896 74.6774 212.591 74.5399C212.286 74.3991 212.024 74.2047 211.806 73.9567C211.592 73.7052 211.427 73.4119 211.313 73.0767C211.199 72.7415 211.142 72.3778 211.142 71.9856ZM212.073 71.87V71.9856C212.073 72.2571 212.105 72.5136 212.168 72.7549C212.232 72.9929 212.327 73.2041 212.455 73.3885C212.586 73.5728 212.748 73.7187 212.943 73.8259C213.137 73.9298 213.363 73.9818 213.621 73.9818C213.876 73.9818 214.099 73.9298 214.29 73.8259C214.484 73.7187 214.645 73.5728 214.773 73.3885C214.9 73.2041 214.996 72.9929 215.059 72.7549C215.126 72.5136 215.16 72.2571 215.16 71.9856V71.87C215.16 71.6018 215.126 71.3487 215.059 71.1107C214.996 70.8694 214.898 70.6565 214.768 70.4721C214.64 70.2844 214.479 70.1369 214.285 70.0297C214.094 69.9224 213.869 69.8688 213.611 69.8688C213.357 69.8688 213.132 69.9224 212.937 70.0297C212.746 70.1369 212.586 70.2844 212.455 70.4721C212.327 70.6565 212.232 70.8694 212.168 71.1107C212.105 71.3487 212.073 71.6018 212.073 71.87ZM218.192 70.3666V74.6455H217.262V69.2051H218.142L218.192 70.3666ZM217.971 71.7191L217.583 71.704C217.587 71.332 217.642 70.9884 217.749 70.6733C217.857 70.3548 218.008 70.0783 218.202 69.8436C218.396 69.609 218.628 69.428 218.896 69.3006C219.167 69.1699 219.467 69.1045 219.796 69.1045C220.064 69.1045 220.305 69.1414 220.52 69.2151C220.734 69.2855 220.917 69.3995 221.068 69.557C221.222 69.7146 221.34 69.9191 221.42 70.1705C221.5 70.4185 221.541 70.7219 221.541 71.0806V74.6455H220.605V71.0705C220.605 70.7856 220.564 70.5576 220.48 70.3867C220.396 70.2124 220.274 70.0867 220.113 70.0096C219.952 69.9291 219.754 69.8889 219.519 69.8889C219.288 69.8889 219.077 69.9375 218.886 70.0347C218.698 70.1319 218.535 70.266 218.398 70.437C218.264 70.6079 218.158 70.804 218.081 71.0252C218.008 71.2431 217.971 71.4744 217.971 71.7191ZM226.121 73.2024C226.121 73.0683 226.091 72.9443 226.031 72.8303C225.974 72.713 225.855 72.6074 225.674 72.5136C225.496 72.4164 225.228 72.3326 224.869 72.2622C224.568 72.1985 224.294 72.1231 224.05 72.0359C223.808 71.9487 223.602 71.8432 223.431 71.7191C223.264 71.5951 223.135 71.4493 223.044 71.2817C222.954 71.1141 222.908 70.918 222.908 70.6934C222.908 70.4789 222.955 70.2761 223.049 70.085C223.146 69.8939 223.282 69.7246 223.456 69.5771C223.634 69.4296 223.847 69.314 224.095 69.2302C224.343 69.1464 224.62 69.1045 224.925 69.1045C225.36 69.1045 225.732 69.1816 226.041 69.3358C226.349 69.49 226.586 69.6961 226.75 69.9543C226.914 70.209 226.996 70.4923 226.996 70.804H226.066C226.066 70.6532 226.021 70.5073 225.93 70.3666C225.843 70.2224 225.714 70.1034 225.543 70.0096C225.375 69.9157 225.169 69.8688 224.925 69.8688C224.666 69.8688 224.457 69.909 224.296 69.9894C224.139 70.0665 224.023 70.1654 223.949 70.2861C223.879 70.4068 223.844 70.5342 223.844 70.6682C223.844 70.7688 223.86 70.8593 223.894 70.9398C223.931 71.0169 223.994 71.0889 224.085 71.156C224.175 71.2197 224.303 71.28 224.467 71.337C224.631 71.394 224.841 71.451 225.096 71.5079C225.541 71.6085 225.908 71.7292 226.197 71.87C226.485 72.0108 226.7 72.1834 226.84 72.3879C226.981 72.5923 227.051 72.8404 227.051 73.132C227.051 73.37 227.001 73.5879 226.901 73.7857C226.803 73.9835 226.661 74.1544 226.473 74.2986C226.289 74.4394 226.068 74.55 225.81 74.6304C225.555 74.7075 225.268 74.7461 224.95 74.7461C224.47 74.7461 224.065 74.6606 223.733 74.4896C223.401 74.3187 223.15 74.0974 222.979 73.8259C222.808 73.5544 222.722 73.2678 222.722 72.9661H223.657C223.671 73.2209 223.745 73.4237 223.879 73.5745C224.013 73.722 224.177 73.8276 224.371 73.8913C224.566 73.9516 224.759 73.9818 224.95 73.9818C225.204 73.9818 225.417 73.9483 225.588 73.8812C225.763 73.8142 225.895 73.722 225.986 73.6047C226.076 73.4874 226.121 73.3533 226.121 73.2024ZM231.602 73.3885V69.2051H232.537V74.6455H231.647L231.602 73.3885ZM231.778 72.2421L232.165 72.232C232.165 72.594 232.127 72.9292 232.049 73.2376C231.976 73.5427 231.855 73.8075 231.687 74.0321C231.52 74.2567 231.3 74.4326 231.029 74.56C230.757 74.6841 230.427 74.7461 230.038 74.7461C229.773 74.7461 229.53 74.7075 229.309 74.6304C229.091 74.5533 228.904 74.4343 228.746 74.2734C228.588 74.1125 228.466 73.903 228.379 73.6449C228.295 73.3868 228.253 73.0767 228.253 72.7147V69.2051H229.183V72.7248C229.183 72.9695 229.21 73.1723 229.264 73.3332C229.321 73.4907 229.396 73.6164 229.49 73.7103C229.587 73.8008 229.695 73.8645 229.812 73.9013C229.933 73.9382 230.057 73.9567 230.184 73.9567C230.58 73.9567 230.893 73.8812 231.124 73.7304C231.356 73.5762 231.522 73.37 231.622 73.1119C231.726 72.8505 231.778 72.5605 231.778 72.2421ZM234.966 66.9223V74.6455H234.031V66.9223H234.966ZM238.737 69.2051V69.9191H235.795V69.2051H238.737ZM236.791 67.8827H237.721V73.298C237.721 73.4823 237.75 73.6214 237.807 73.7153C237.864 73.8092 237.937 73.8712 238.028 73.9013C238.118 73.9315 238.216 73.9466 238.32 73.9466C238.397 73.9466 238.477 73.9399 238.561 73.9265C238.648 73.9097 238.713 73.8963 238.757 73.8863L238.762 74.6455C238.688 74.669 238.591 74.6908 238.47 74.7109C238.353 74.7343 238.211 74.7461 238.043 74.7461C237.815 74.7461 237.606 74.7008 237.414 74.6103C237.223 74.5198 237.071 74.369 236.957 74.1578C236.846 73.9432 236.791 73.655 236.791 73.2929V67.8827ZM242.996 73.2024C242.996 73.0683 242.966 72.9443 242.905 72.8303C242.848 72.713 242.729 72.6074 242.548 72.5136C242.371 72.4164 242.102 72.3326 241.744 72.2622C241.442 72.1985 241.169 72.1231 240.924 72.0359C240.683 71.9487 240.477 71.8432 240.306 71.7191C240.138 71.5951 240.009 71.4493 239.919 71.2817C239.828 71.1141 239.783 70.918 239.783 70.6934C239.783 70.4789 239.83 70.2761 239.924 70.085C240.021 69.8939 240.157 69.7246 240.331 69.5771C240.508 69.4296 240.721 69.314 240.969 69.2302C241.217 69.1464 241.494 69.1045 241.799 69.1045C242.235 69.1045 242.607 69.1816 242.915 69.3358C243.224 69.49 243.46 69.6961 243.624 69.9543C243.789 70.209 243.871 70.4923 243.871 70.804H242.94C242.94 70.6532 242.895 70.5073 242.805 70.3666C242.718 70.2224 242.588 70.1034 242.417 70.0096C242.25 69.9157 242.044 69.8688 241.799 69.8688C241.541 69.8688 241.331 69.909 241.171 69.9894C241.013 70.0665 240.897 70.1654 240.824 70.2861C240.753 70.4068 240.718 70.5342 240.718 70.6682C240.718 70.7688 240.735 70.8593 240.768 70.9398C240.805 71.0169 240.869 71.0889 240.959 71.156C241.05 71.2197 241.177 71.28 241.341 71.337C241.506 71.394 241.715 71.451 241.97 71.5079C242.416 71.6085 242.783 71.7292 243.071 71.87C243.359 72.0108 243.574 72.1834 243.715 72.3879C243.856 72.5923 243.926 72.8404 243.926 73.132C243.926 73.37 243.876 73.5879 243.775 73.7857C243.678 73.9835 243.535 74.1544 243.348 74.2986C243.163 74.4394 242.942 74.55 242.684 74.6304C242.429 74.7075 242.143 74.7461 241.824 74.7461C241.345 74.7461 240.939 74.6606 240.607 74.4896C240.276 74.3187 240.024 74.0974 239.853 73.8259C239.682 73.5544 239.597 73.2678 239.597 72.9661H240.532C240.545 73.2209 240.619 73.4237 240.753 73.5745C240.887 73.722 241.052 73.8276 241.246 73.8913C241.44 73.9516 241.633 73.9818 241.824 73.9818C242.079 73.9818 242.292 73.9483 242.463 73.8812C242.637 73.8142 242.769 73.722 242.86 73.6047C242.95 73.4874 242.996 73.3533 242.996 73.2024Z" fill="black"/>
</svg>
