<?xml version="1.0" encoding="utf-8"?>
<!-- Generator: Adobe Illustrator 25.4.0, SVG Export Plug-In . SVG Version: 6.00 Build 0)  -->
<svg version="1.1" id="Layer_1" xmlns="http://www.w3.org/2000/svg" xmlns:xlink="http://www.w3.org/1999/xlink" x="0px" y="0px"
	 viewBox="0 0 300 300" style="enable-background:new 0 0 300 300;" xml:space="preserve">
<style type="text/css">
	.st0{fill-rule:evenodd;clip-rule:evenodd;}
	.st1{clip-path:url(#SVGID_00000102545262523938084370000016420251181113841308_);fill-rule:evenodd;clip-rule:evenodd;fill:none;}
	.st2{clip-path:url(#SVGID_00000102545262523938084370000016420251181113841308_);fill-rule:evenodd;clip-rule:evenodd;}
	.st3{font-family:'MADEEvolveSans-Bold';}
	.st4{font-size:10.3469px;}
</style>
<g>
	<path class="st0" d="M166.42,130.93c3.44,0,6.24,2.82,6.24,6.3c0,3.48-2.8,6.3-6.24,6.3c-3.44,0-6.24-2.82-6.24-6.3
		C160.18,133.75,162.97,130.93,166.42,130.93z"/>
	<g>
		<defs>
			<path id="SVGID_1_" d="M152.65,93.78c24.4,0,44.2,20,44.2,44.63c0,24.63-19.81,44.63-44.2,44.63c-24.4,0-44.2-20-44.2-44.63
				C108.44,113.78,128.25,93.78,152.65,93.78z"/>
		</defs>
		<clipPath id="SVGID_00000108988655556757547890000010480145197550564765_">
			<use xlink:href="#SVGID_1_"  style="overflow:visible;"/>
		</clipPath>
		
			<path style="clip-path:url(#SVGID_00000108988655556757547890000010480145197550564765_);fill-rule:evenodd;clip-rule:evenodd;fill:none;" d="
			M152.65,93.78c24.4,0,44.2,20,44.2,44.63c0,24.63-19.81,44.63-44.2,44.63c-24.4,0-44.2-20-44.2-44.63
			C108.44,113.78,128.25,93.78,152.65,93.78z"/>
		
			<path style="clip-path:url(#SVGID_00000108988655556757547890000010480145197550564765_);fill-rule:evenodd;clip-rule:evenodd;" d="
			M138.94,144.6c2.85,0,5.16,2.33,5.16,5.21c0,2.87-2.31,5.2-5.16,5.2c-2.85,0-5.16-2.33-5.16-5.2
			C133.78,146.93,136.09,144.6,138.94,144.6z"/>
		
			<path style="clip-path:url(#SVGID_00000108988655556757547890000010480145197550564765_);fill-rule:evenodd;clip-rule:evenodd;" d="
			M127.62,181.29c-4.48-7.77-7.89-27.13-8.68-32.22c-1.02-6.53-3.23-10.4,0.23-11.55c3.71-1.23,6.45,9.04,13.77,17.15
			c7.88,8.74,18.37,2.98,20.44,8.47c1.06,2.82-6.15,5.37-9.16,9.34c-4.9,6.45-4.46,10.58-4.21,16.63"/>
		
			<path style="clip-path:url(#SVGID_00000108988655556757547890000010480145197550564765_);fill-rule:evenodd;clip-rule:evenodd;" d="
			M166.59,190.13c-0.73-3.28-0.25-6.91-0.52-10.24c-0.44-5.3-2.03-10.84-5.25-15.12c-1.44-1.92-3.14-3.77-5.18-5.05
			c-2.07-1.31-4.4-2.18-6.33-3.72c-1.56-1.25-3.58-3.59-3.24-5.8c0.39-2.6,3.73-2.33,5.6-2.16c5.89,0.52,11.82,1.3,17.6-0.47
			c5.36-1.64,9.15-5.72,12.5-10.02c0.57-0.73,2.6-3.49,3.92-2.77c2.14,1.17,1.88,5.3,1.96,7.3c0.32,8.11-0.62,16.05-3.25,23.75
			c-2.01,5.89-4.72,12.25-9.05,16.81"/>
	</g>
	<g>
		<path d="M131.57,115.02c-0.37-0.02-0.64-0.04-0.9-0.04c-1.74-0.01-3.47-0.02-5.21-0.01c-0.53,0-0.78-0.12-0.78-0.63
			c0-0.48,0.18-0.71,0.74-0.66c0.66,0.06,1.38-0.01,2.04-0.03c1.09-0.02,2.14,0.06,3.24,0c0.22-0.01,0.46,0,0.67-0.02
			c1.19,0.02,1.56-0.5,2.05-1.3c-0.35-0.03-0.63-0.08-0.91-0.08c-2.32-0.01-4.65-0.01-6.97-0.02c-0.76,0-1.09-0.4-0.81-1.03
			c0.06-0.13,0.38-0.24,0.58-0.25c1.56-0.02,3.11-0.01,4.67-0.01c1.35,0,2.71-0.04,4.06-0.01c0.74,0.02,1.36-0.12,1.92-0.57
			c0.31-0.25,0.69-0.43,1.04-0.64c-0.01-0.07-0.01-0.14-0.02-0.21c-0.95,0-1.89,0-2.84,0c-2.89,0-5.78,0-8.66,0
			c-0.4,0-0.79,0.03-0.75-0.5c0.03-0.43-0.03-0.8,0.72-0.8c6.79,0.02,13.58,0.02,20.37,0c0.66,0,0.64,0.34,0.66,0.73
			c0.02,0.43-0.17,0.57-0.67,0.59c-1.64,0.06-3.33-0.01-4.91,0.3c-5.36,1.08-8.92,5.1-8.95,9.95c-0.02,3.63-0.01,7.25,0,10.88
			c0,0.5-0.16,0.71-0.77,0.69c-0.57-0.01-0.72-0.19-0.72-0.67c0.02-3.66,0.01-7.33,0.01-10.99c0-1.42,0.3-2.79,0.88-4.12
			C131.41,115.44,131.46,115.3,131.57,115.02z"/>
		<path d="M144.44,113.68c0.37-0.02,0.79,0.02,1.24,0.01c0.77-0.03,0.84,0.08,0.82,0.75c-0.01,0.41-0.21,0.55-0.66,0.54
			c-0.7-0.02-1.4-0.01-2.1,0c-2.93,0.03-5.46,2.1-5.51,4.67c-0.05,2.4,2.02,4.61,4.9,4.89c0.85,0.08,1.71,0.03,2.57,0.08
			c0.27,0.02,0.74,0.12,0.77,0.24c0.07,0.32,0.09,0.82-0.13,0.98c-0.21,0.15-0.74-0.01-1.13-0.08c-0.13-0.02-0.24-0.16-0.4-0.28
			c3.87,0.65-1.28,0.49-1.98,0.39c-1.58-0.22-2.97-0.79-4.11-1.79c-0.11-0.09-0.23-0.18-0.36-0.27c-0.5,0.93-0.23,1.84,0.67,2.35
			c1.1,0.62,2.29,1,3.44,1.11c0.38,0.13,1.35,0.04,1.77,0.11c0.21-0.05-1.12,0.59-1.01,0.47c0.84-0.9,3.45-0.24,3-0.5
			c-0.07-0.04,0.25,0.58,0.26,0.9c0,0.13-0.3,0.38-0.47,0.39c-2.58,0.07-5.15,0.09-7.49-1.11c-0.05-0.03-0.13-0.02-0.19-0.03
			c-0.44,0.88-0.24,1.34,0.72,1.71c1.6,0.62,3.27,0.87,5.01,0.82c0.78-0.02,1.57,0,2.45,0c0,0.34-0.02,0.61,0,0.88
			c0.03,0.36-0.15,0.48-0.55,0.49c-2.51,0.03-5.01,0.04-7.39-0.84c-0.08-0.03-0.17-0.03-0.3-0.05c-0.04,0.1-0.11,0.19-0.1,0.27
			c0.07,0.66-0.43,0.6-0.92,0.61c-0.6,0.01-0.56-0.33-0.56-0.68c-0.01-3.54-0.04-7.09-0.03-10.63c0.01-3.49,3.01-6.23,6.97-6.37
			C143.89,113.67,144.1,113.64,144.44,113.68z"/>
		<path d="M133.57,124.82c0-1.68-0.01-3.37,0-5.05c0.04-4.49,3.43-8.01,8.48-8.72c1.3-0.18,2.65-0.06,3.98-0.08
			c0.49-0.01,0.47,0.29,0.45,0.57c-0.02,0.29,0.12,0.69-0.46,0.7c-0.77,0.01-1.53,0.01-2.3,0.01c-3.93,0.01-7.06,1.97-8.27,5.23
			c-0.21,0.57-0.3,1.2-0.31,1.8c-0.06,3.82-0.09,7.64-0.09,11.46c0,0.52-0.24,0.62-0.76,0.62c-0.58,0.01-0.73-0.19-0.72-0.67
			C133.59,128.75,133.58,126.78,133.57,124.82C133.58,124.82,133.58,124.82,133.57,124.82z"/>
	</g>
	<text transform="matrix(0.9905 0 0 1 149.1531 119.3402)"><tspan x="0" y="0" class="st3 st4">Tuloan</tspan><tspan x="0" y="8.28" class="st3 st4">Consults</tspan></text>
</g>
</svg>
